<svg width="29" height="29" viewBox="0 0 29 29" fill="none" xmlns="http://www.w3.org/2000/svg">
<path d="M26.6134 9.46976V4.95363H24.5394V0.4375H0.6875V26.1794C0.6875 27.4245 1.85054 28.4375 3.28009 28.4375H26.0949C27.5245 28.4375 28.6875 27.4245 28.6875 26.1794V9.46976H26.6134ZM3.28009 27.5343C2.42246 27.5343 1.72454 26.9264 1.72454 26.1794V1.34073H23.5023V26.1794C23.5023 26.6875 23.6957 27.1567 24.0219 27.5343H3.28009ZM27.6505 26.1794C27.6505 26.9264 26.9525 27.5343 26.0949 27.5343C25.2373 27.5343 24.5394 26.9264 24.5394 26.1794V5.85685H25.5764V24.8246H26.6134V10.373H27.6505V26.1794Z" fill="black"/>
<path d="M26.6135 25.7278H25.5764V26.631H26.6135V25.7278Z" fill="black"/>
<path d="M18.5105 21.3061L16.7616 20.8712V20.7506C17.4076 20.3266 17.7986 19.6595 17.7986 18.9537V18.1281C17.7986 16.9331 16.7709 15.9121 15.4585 15.8032C14.7321 15.7409 14.0015 15.9522 13.4622 16.379C12.923 16.8062 12.6134 17.4155 12.6134 18.0504V18.9537C12.6134 19.6595 13.0044 20.3266 13.6504 20.7506V20.8712L11.901 21.3061C10.7939 21.5821 10.0208 22.4749 10.0208 23.4779V24.8246H20.3912V23.4779C20.3912 22.4749 19.6181 21.5821 18.5105 21.3061ZM19.3541 23.9214H11.0579V23.4779C11.0579 22.8764 11.5219 22.3403 12.1861 22.175L14.6875 21.5522V20.2498L14.4298 20.1193C13.9419 19.8718 13.6504 19.436 13.6504 18.9537V18.0504C13.6504 17.6693 13.8361 17.3039 14.1596 17.0474C14.4879 16.7873 14.9104 16.6667 15.36 16.7015C16.1461 16.767 16.7616 17.3938 16.7616 18.1281V18.9537C16.7616 19.436 16.4701 19.8718 15.9822 20.1193L15.7245 20.2498V21.5522L18.2253 22.175C18.8901 22.3403 19.3541 22.8764 19.3541 23.4779V23.9214Z" fill="black"/>
<path d="M7.94678 26.631H22.4653V13.9858H7.94678V26.631ZM8.98381 14.8891H21.4283V25.7278H8.98381V14.8891Z" fill="black"/>
<path d="M8.98382 13.0826C12.4149 13.0826 15.206 10.6516 15.206 7.66325C15.206 4.67493 12.4149 2.2439 8.98382 2.2439C5.55278 2.2439 2.7616 4.67493 2.7616 7.66325C2.7616 10.6516 5.55278 13.0826 8.98382 13.0826ZM8.98382 12.1794C6.8693 12.1794 5.0493 11.0693 4.243 9.48461C4.86782 9.52164 5.45219 9.74157 5.89915 10.1309L6.00649 10.2243C6.45034 10.6114 7.04093 10.8245 7.66937 10.8245C8.96619 10.8245 10.0209 9.90596 10.0209 8.77648V8.34067C10.0209 7.46906 9.20678 6.76003 8.20604 6.76003C7.77723 6.76003 7.42826 6.45609 7.42826 6.08261V5.40519C7.42826 4.75712 7.18819 4.11854 6.76041 3.5897C7.29656 3.36661 7.88093 3.21893 8.499 3.1688C8.48449 3.27086 8.4653 3.37338 8.4653 3.4759C8.4653 4.26622 8.8713 5.0028 9.58011 5.49641L10.4637 6.11151C10.8412 6.37435 11.0579 6.76725 11.0579 7.1877C11.0579 8.4459 12.2334 9.4697 13.678 9.4697C13.6966 9.4697 13.7163 9.46654 13.735 9.46609C12.9339 11.0612 11.1066 12.1794 8.98382 12.1794ZM14.169 7.66325C14.169 7.96177 14.1337 8.25351 14.07 8.53622C13.9383 8.55428 13.8071 8.56648 13.678 8.56648C12.8048 8.56648 12.0949 7.94822 12.0949 7.1877C12.0949 6.49132 11.7372 5.8419 11.1118 5.40609L10.2283 4.79054C9.76678 4.46944 9.50234 3.98983 9.50234 3.4759C9.50234 3.37564 9.51374 3.27493 9.53656 3.17377C12.1364 3.41493 14.169 5.33564 14.169 7.66325ZM5.87686 4.05622C6.20819 4.44325 6.39123 4.92196 6.39123 5.40519V6.08261C6.39123 6.95422 7.2053 7.66325 8.20604 7.66325C8.63486 7.66325 8.98382 7.96719 8.98382 8.34067V8.77648C8.98382 9.40738 8.39374 9.92132 7.66937 9.92132C7.31782 9.92132 6.98804 9.80209 6.73967 9.58622L6.63234 9.49274C5.94686 8.8957 5.0353 8.56648 4.06567 8.56648C4.01226 8.56648 3.95678 8.56015 3.90078 8.55293C3.83441 8.2648 3.79863 7.96764 3.79863 7.66325C3.79863 6.18874 4.61789 4.88132 5.87686 4.05622Z" fill="black"/>
<path d="M22.4653 2.2439H16.243V3.14712H22.4653V2.2439Z" fill="black"/>
<path d="M17.2801 4.05042H16.243V4.95364H17.2801V4.05042Z" fill="black"/>
<path d="M22.4653 4.05042H18.3171V4.95364H22.4653V4.05042Z" fill="black"/>
<path d="M22.4653 5.85681H16.243V6.76004H22.4653V5.85681Z" fill="black"/>
<path d="M22.4653 7.66333H16.243V8.56656H22.4653V7.66333Z" fill="black"/>
<path d="M20.3912 9.46973H16.243V10.373H20.3912V9.46973Z" fill="black"/>
<path d="M22.4653 9.46973H21.4282V10.373H22.4653V9.46973Z" fill="black"/>
<path d="M6.90974 25.2762H2.7616V26.1795H6.90974V25.2762Z" fill="black"/>
<path d="M6.90974 23.4697H2.7616V24.373H6.90974V23.4697Z" fill="black"/>
<path d="M6.90974 21.6633H2.7616V22.5666H6.90974V21.6633Z" fill="black"/>
<path d="M6.90974 19.8568H2.7616V20.76H6.90974V19.8568Z" fill="black"/>
<path d="M6.90974 18.0504H2.7616V18.9536H6.90974V18.0504Z" fill="black"/>
</svg>
