<svg width="29" height="29" viewBox="0 0 29 29" fill="none" xmlns="http://www.w3.org/2000/svg">
<path fill-rule="evenodd" clip-rule="evenodd" d="M14.615 21.9091C17.8366 21.9091 20.4483 19.2974 20.4483 16.0758C20.4483 12.8541 17.8366 10.2424 14.615 10.2424C11.3934 10.2424 8.78168 12.8541 8.78168 16.0758C8.78168 19.2974 11.3934 21.9091 14.615 21.9091ZM14.615 19.584C12.6774 19.584 11.1067 18.0134 11.1067 16.0758C11.1067 14.1382 12.6774 12.5675 14.615 12.5675C16.5526 12.5675 18.1233 14.1382 18.1233 16.0758C18.1233 18.0134 16.5526 19.584 14.615 19.584Z" fill="#0F0F0F"/>
<path fill-rule="evenodd" clip-rule="evenodd" d="M11.7702 3.24243C10.1641 3.24243 8.76418 4.33547 8.37465 5.89355L7.87077 7.9091H5.28168C3.34869 7.9091 1.78168 9.47611 1.78168 11.4091V23.0758C1.78168 25.0088 3.34869 26.5758 5.28168 26.5758H23.9483C25.8814 26.5758 27.4483 25.0088 27.4483 23.0758V11.4091C27.4483 9.47611 25.8814 7.9091 23.9483 7.9091H21.3593L20.8554 5.89355C20.4658 4.33547 19.066 3.24243 17.4598 3.24243H11.7702ZM10.6383 6.45947C10.7682 5.94012 11.2348 5.57577 11.7702 5.57577H17.4598C17.9952 5.57577 18.4619 5.94012 18.5917 6.45947L19.0956 8.47501C19.3553 9.51374 20.2885 10.2424 21.3593 10.2424H23.9483C24.5927 10.2424 25.115 10.7648 25.115 11.4091V23.0758C25.115 23.7201 24.5927 24.2424 23.9483 24.2424H5.28168C4.63735 24.2424 4.11501 23.7201 4.11501 23.0758V11.4091C4.11501 10.7648 4.63735 10.2424 5.28168 10.2424H7.87077C8.94146 10.2424 9.87475 9.51374 10.1344 8.47501L10.6383 6.45947Z" fill="#0F0F0F"/>
</svg>
