<svg width="28" height="28" viewBox="0 0 28 28" fill="none" xmlns="http://www.w3.org/2000/svg">
<g clip-path="url(#clip0_112_10)">
<path d="M6.27591 2.24653C5.75488 2.11964 5.21101 2.11964 4.68998 2.24653C4.66056 2.25175 4.63253 2.26293 4.6076 2.27939C4.58267 2.29586 4.56138 2.31725 4.54504 2.34226C4.52869 2.36726 4.51765 2.39535 4.51257 2.42479C4.5075 2.45423 4.50852 2.4844 4.51555 2.51343C4.52258 2.54247 4.53549 2.56975 4.55347 2.59361C4.57146 2.61746 4.59413 2.63738 4.62011 2.65214C4.64609 2.66689 4.67481 2.67617 4.70451 2.6794C4.7342 2.68263 4.76425 2.67974 4.79279 2.67091C5.24639 2.56154 5.7195 2.56154 6.1731 2.67091H6.2256C6.27557 2.67236 6.32453 2.65666 6.36433 2.62641C6.40414 2.59616 6.43238 2.55319 6.44435 2.50466C6.45602 2.44811 6.44487 2.38925 6.41332 2.34089C6.38176 2.29254 6.33237 2.25862 6.27591 2.24653Z" fill="black"/>
<path d="M3.64874 2.69937C3.46106 2.82428 3.28597 2.96714 3.12592 3.12593C3.10542 3.14626 3.08915 3.17046 3.07804 3.19711C3.06694 3.22377 3.06122 3.25236 3.06122 3.28124C3.06122 3.31012 3.06694 3.33871 3.07804 3.36537C3.08915 3.39202 3.10542 3.41622 3.12592 3.43655C3.14626 3.45706 3.17045 3.47333 3.19711 3.48444C3.22377 3.49554 3.25236 3.50126 3.28124 3.50126C3.31011 3.50126 3.33871 3.49554 3.36536 3.48444C3.39202 3.47333 3.41621 3.45706 3.43655 3.43655C3.57408 3.29647 3.72583 3.1711 3.88936 3.06249C3.93767 3.03076 3.97146 2.9812 3.98335 2.92464C3.99523 2.86808 3.98425 2.80911 3.9528 2.76062C3.93691 2.73657 3.91642 2.7159 3.89251 2.6998C3.86861 2.68369 3.84176 2.67247 3.8135 2.66678C3.78524 2.66109 3.75614 2.66104 3.72787 2.66663C3.69959 2.67222 3.6727 2.68335 3.64874 2.69937Z" fill="black"/>
<path d="M12.0816 24.0275C12.0667 24.0002 12.0462 23.9765 12.0215 23.9577C11.9967 23.939 11.9683 23.9258 11.938 23.9189C11.9078 23.912 11.8764 23.9117 11.846 23.9178C11.8156 23.924 11.7868 23.9366 11.7617 23.9547C11.7365 23.9729 11.7154 23.9961 11.7 24.023C11.6845 24.0499 11.6749 24.0798 11.6718 24.1107C11.6688 24.1416 11.6723 24.1728 11.6823 24.2022C11.6922 24.2316 11.7083 24.2585 11.7294 24.2812L13.3963 26.5453C13.4133 26.5684 13.4348 26.588 13.4595 26.6028C13.4841 26.6177 13.5114 26.6275 13.5399 26.6318C13.5683 26.636 13.5973 26.6347 13.6252 26.6277C13.6531 26.6207 13.6794 26.6083 13.7025 26.5912C13.7257 26.5742 13.7452 26.5527 13.7601 26.528C13.7749 26.5034 13.7847 26.4761 13.789 26.4476C13.7933 26.4192 13.7919 26.3902 13.7849 26.3623C13.778 26.3344 13.7656 26.3081 13.7485 26.285L12.0816 24.0275Z" fill="black"/>
<path d="M18.2722 7.46598C18.255 7.4891 18.2426 7.51536 18.2357 7.54327C18.2287 7.57118 18.2273 7.60019 18.2316 7.62863C18.2359 7.65708 18.2457 7.68441 18.2605 7.70905C18.2754 7.73369 18.2949 7.75516 18.3181 7.77223L19.215 8.42848C19.2522 8.45644 19.2975 8.47176 19.344 8.47223C19.3905 8.47287 19.436 8.45868 19.4739 8.43173C19.5117 8.40478 19.54 8.36646 19.5547 8.32233C19.5693 8.27821 19.5695 8.23057 19.5552 8.18633C19.5409 8.14209 19.5129 8.10355 19.4753 8.07629L18.5784 7.42004C18.5553 7.40292 18.529 7.39053 18.5011 7.38357C18.4732 7.37661 18.4442 7.37523 18.4158 7.3795C18.3873 7.38376 18.36 7.3936 18.3353 7.40844C18.3107 7.42328 18.2892 7.44283 18.2722 7.46598Z" fill="black"/>
<path d="M20.9366 9.15912C20.8897 9.12907 20.8332 9.11802 20.7784 9.12821C20.7237 9.13839 20.6749 9.16906 20.642 9.21395C20.6091 9.25884 20.5946 9.31459 20.6014 9.36983C20.6081 9.42508 20.6357 9.47567 20.6784 9.51131L22.3125 10.7188C22.3592 10.7533 22.4177 10.7679 22.4751 10.7593C22.5326 10.7506 22.5842 10.7196 22.6187 10.6729C22.6533 10.6262 22.6678 10.5677 22.6592 10.5102C22.6506 10.4528 22.6195 10.4011 22.5728 10.3666L20.9366 9.15912Z" fill="black"/>
<path d="M9.32753 2.63596L9.62503 2.33409C9.66577 2.2931 9.68864 2.23766 9.68864 2.17987C9.68864 2.12208 9.66577 2.06664 9.62503 2.02565L8.77409 1.17253C8.75375 1.15202 8.72956 1.13575 8.7029 1.12464C8.67625 1.11354 8.64765 1.10782 8.61878 1.10782C8.5899 1.10782 8.56131 1.11354 8.53465 1.12464C8.50799 1.13575 8.4838 1.15202 8.46346 1.17253L8.01284 1.62753C7.12664 1.04294 6.06579 0.782217 5.00957 0.889403C3.95335 0.99659 2.96651 1.46512 2.21582 2.21582C1.46512 2.96651 0.99659 3.95335 0.889403 5.00957C0.782217 6.06579 1.04294 7.12663 1.62753 8.01284L1.17253 8.46784C1.15202 8.48817 1.13575 8.51237 1.12464 8.53902C1.11354 8.56568 1.10782 8.59427 1.10782 8.62315C1.10782 8.65203 1.11354 8.68062 1.12464 8.70728C1.13575 8.73393 1.15202 8.75813 1.17253 8.77846L2.02565 9.62502C2.06604 9.66624 2.12108 9.68983 2.17878 9.69065C2.20772 9.69053 2.23635 9.68467 2.26301 9.6734C2.28967 9.66214 2.31383 9.64569 2.33409 9.62502L2.63596 9.32315L15.6932 27.0419C15.7135 27.0698 15.7402 27.0924 15.771 27.108C15.8018 27.1236 15.8358 27.1317 15.8703 27.1316C15.9169 27.1311 15.9621 27.1158 15.9994 27.0878C16.0455 27.0534 16.0762 27.0022 16.0848 26.9452C16.0934 26.8883 16.0792 26.8303 16.0453 26.7838L3.37534 9.59221C4.21095 10.0238 5.1589 10.1886 6.09114 10.0642C7.02337 9.93976 7.89496 9.53221 8.58815 8.89659L24.2485 24.5591C24.2688 24.5796 24.293 24.5959 24.3197 24.607C24.3463 24.6181 24.3749 24.6238 24.4038 24.6238C24.4327 24.6238 24.4612 24.6181 24.4879 24.607C24.5146 24.5959 24.5388 24.5796 24.5591 24.5591C24.5796 24.5388 24.5959 24.5146 24.607 24.4879C24.6181 24.4612 24.6238 24.4327 24.6238 24.4038C24.6238 24.3749 24.6181 24.3463 24.607 24.3196C24.5959 24.293 24.5796 24.2688 24.5591 24.2485L8.89878 8.58815C9.53199 7.89405 9.93795 7.02301 10.0623 6.09173C10.1866 5.16046 10.0234 4.21343 9.5944 3.37753L26.7882 16.0453C26.8257 16.0725 26.8709 16.0871 26.9172 16.0869C26.9515 16.0872 26.9855 16.0795 27.0163 16.0643C27.047 16.0491 27.0738 16.0269 27.0944 15.9994C27.1114 15.9762 27.1237 15.9498 27.1304 15.9218C27.1372 15.8938 27.1384 15.8647 27.134 15.8363C27.1295 15.8078 27.1194 15.7805 27.1044 15.756C27.0893 15.7314 27.0696 15.7101 27.0463 15.6931L9.32753 2.63596ZM2.5244 2.5244C3.19153 1.85273 4.06798 1.42893 5.00873 1.32312C5.94948 1.21731 6.89817 1.43583 7.69784 1.94253L1.94253 7.69784C1.43583 6.89817 1.21731 5.94948 1.32312 5.00873C1.42893 4.06798 1.85273 3.19153 2.5244 2.5244ZM2.18753 9.16565L1.63628 8.62315L8.62315 1.63628L9.16565 2.18753L2.18753 9.16565ZM3.06253 8.8944L5.82753 6.13596L8.27971 8.58815C7.57505 9.22586 6.67377 9.60384 5.72502 9.65953C4.77628 9.71522 3.83696 9.44529 3.06253 8.8944ZM8.58159 8.27971L6.13596 5.82753L8.8944 3.06253C9.44567 3.83681 9.71585 4.77621 9.66015 5.72506C9.60445 6.67391 9.22623 7.57524 8.58815 8.27971H8.58159Z" fill="black"/>
</g>
<defs>
<clipPath id="clip0_112_10">
<rect width="28" height="28" fill="white"/>
</clipPath>
</defs>
</svg>
