<svg width="30" height="30" viewBox="0 0 30 30" fill="none" xmlns="http://www.w3.org/2000/svg">
<g clip-path="url(#clip0_116_27)">
<path d="M24.3671 17.9972L29.871 12.4933C30.043 12.3213 30.043 12.0426 29.871 11.8706L28.9564 10.956C29.2115 10.4402 29.1258 9.79712 28.6969 9.3682L28.0262 8.69757C28.1632 8.52473 28.152 8.27299 27.9924 8.1133C27.8204 7.94135 27.5416 7.94135 27.3697 8.1133L27.0945 8.38853L26.7417 8.74131L26.1902 8.1898L26.5834 7.79663C26.7553 7.62467 26.7553 7.34593 26.5834 7.17397C26.4114 7.00201 26.1326 7.00201 25.9607 7.17397L25.5675 7.56714L25.2509 7.25047L25.644 6.8573C25.816 6.68534 25.816 6.40659 25.644 6.23463C25.4721 6.06268 25.1933 6.06268 25.0214 6.23463L24.6282 6.6278L24.3115 6.31113L24.7047 5.91796C24.8766 5.746 24.8766 5.46726 24.7047 5.2953C24.5327 5.12334 24.2539 5.12334 24.082 5.2953L23.6889 5.68847L23.3722 5.3718L23.7654 4.97863C23.9373 4.80667 23.9373 4.52792 23.7654 4.35596C23.5934 4.18401 23.3146 4.18401 23.1427 4.35596L22.7495 4.74913L22.4328 4.43246L22.826 4.03929C22.998 3.86733 22.998 3.58859 22.826 3.41663C22.6541 3.24467 22.3753 3.24467 22.2034 3.41663L21.8102 3.8098L21.4935 3.49313L21.8867 3.09996C22.0586 2.928 22.0586 2.64925 21.8867 2.4773C21.7147 2.30534 21.4359 2.30534 21.264 2.4773L19.855 3.8863C19.6831 4.05825 19.6831 4.337 19.855 4.50896C19.941 4.59497 20.0537 4.63794 20.1664 4.63794C20.279 4.63794 20.3917 4.59497 20.4777 4.50896L20.8709 4.11579L21.1875 4.43246L20.7944 4.82563C20.6224 4.99759 20.6224 5.27634 20.7944 5.44829C20.8803 5.5343 20.993 5.57728 21.1057 5.57728C21.2183 5.57728 21.3311 5.5343 21.417 5.44829L21.8102 5.05512L22.1269 5.3718L21.7337 5.76497C21.5617 5.93692 21.5617 6.21567 21.7337 6.38763C21.8196 6.47364 21.9324 6.51661 22.045 6.51661C22.1577 6.51661 22.2704 6.47364 22.3564 6.38763L22.7495 5.99446L23.0662 6.31113L22.673 6.7043C22.5011 6.87626 22.5011 7.15501 22.673 7.32696C22.759 7.41297 22.8717 7.45594 22.9844 7.45594C23.097 7.45594 23.2097 7.41297 23.2957 7.32696L23.6889 6.93379L24.0055 7.25047L23.6124 7.64364C23.4404 7.81559 23.4404 8.09434 23.6124 8.2663C23.6983 8.3523 23.811 8.39528 23.9237 8.39528C24.0364 8.39528 24.1491 8.3523 24.235 8.2663L24.6282 7.87313L24.9449 8.1898L24.5517 8.58297C24.3797 8.75493 24.3797 9.03367 24.5517 9.20563C24.6376 9.29164 24.7504 9.33461 24.863 9.33461C24.9757 9.33461 25.0884 9.29164 25.1744 9.20563L25.5675 8.81246L26.119 9.36397L25.7663 9.71675L25.491 9.99197C25.3191 10.1639 25.3191 10.4427 25.491 10.6146C25.577 10.7006 25.6897 10.7436 25.8024 10.7436C25.899 10.7436 25.9955 10.7118 26.0753 10.6485L26.7459 11.3191C27.0065 11.5797 27.3529 11.7232 27.7214 11.7232C27.9378 11.7232 28.1465 11.6734 28.3347 11.5797L28.937 12.182L24.8321 16.287L25.2838 14.6606C25.4634 14.1275 25.816 13.5616 26.272 13.5616H26.4613C26.6591 13.5616 26.8326 13.4298 26.8855 13.2393C26.9385 13.0487 26.8579 12.8463 26.6886 12.7442C23.6057 10.8862 19.4546 9.86299 15 9.86299C12.5014 9.86299 10.0983 10.1851 7.92565 10.7956V9.33461H8.42467C8.55524 9.33461 8.67905 9.27667 8.76271 9.17645C8.84637 9.07618 8.88124 8.94403 8.85788 8.81557L7.91854 3.64923C7.8805 3.43982 7.69815 3.28765 7.48533 3.28765C7.27252 3.28765 7.09023 3.43982 7.05212 3.64917L6.11279 8.81551C6.08942 8.94397 6.1243 9.07618 6.20796 9.17639C6.29161 9.27661 6.41543 9.33456 6.546 9.33456H7.04502V11.0637C5.6848 11.5086 4.4278 12.0713 3.31146 12.7442C3.14208 12.8463 3.06154 13.0487 3.11449 13.2393C3.16745 13.4298 3.34093 13.5616 3.53872 13.5616H3.72799C4.01661 13.5616 4.26383 13.7884 4.45199 14.09H3.30929C2.83046 14.09 2.39314 14.3324 2.13935 14.7384L1.7133 15.4201C1.44183 15.4764 1.20805 15.6536 1.08353 15.9027L0.0465075 17.9768C-0.0382674 18.1463 -0.00503844 18.3511 0.128993 18.485L1.87868 20.2348V21.5753C1.87868 21.6186 1.8852 21.6603 1.89682 21.6998C1.03604 22.2869 0.469678 23.2751 0.469678 24.3933C0.469678 26.19 1.93134 27.6516 3.72799 27.6516C5.52465 27.6516 6.98631 26.19 6.98631 24.3933C6.98631 23.6811 6.756 23.0221 6.36682 22.4853H6.94709C7.20318 22.9364 7.64085 23.2615 8.14751 23.3773C8.04218 23.6972 7.98441 24.0385 7.98441 24.3933C7.98441 26.19 9.44608 27.6516 11.2427 27.6516C13.0394 27.6516 14.501 26.19 14.501 24.3933C14.501 24.0562 14.4496 23.7308 14.354 23.4246H15.6461C15.5506 23.7308 15.4991 24.0562 15.4991 24.3933C15.4991 26.19 16.9608 27.6516 18.7574 27.6516C20.5541 27.6516 22.0157 26.19 22.0157 24.3933C22.0157 24.0385 21.958 23.6972 21.8526 23.3773C22.3592 23.2615 22.797 22.9364 23.053 22.4853H23.6333C23.244 23.0221 23.0137 23.6811 23.0137 24.3933C23.0137 26.19 24.4754 27.6516 26.272 27.6516C28.0687 27.6516 29.5303 26.19 29.5303 24.3933C29.5303 22.5967 28.0687 21.135 26.272 21.135C25.638 21.135 25.0463 21.3176 24.5452 21.6321C24.4978 21.6147 24.4468 21.6047 24.3934 21.6047H23.3549L24.3536 18.0095C24.3581 18.0054 24.3628 18.0016 24.3671 17.9972ZM27.7214 10.8426C27.5882 10.8426 27.4629 10.7907 27.3686 10.6965L26.7003 10.0281L27.0411 9.68733C27.0453 9.68346 27.0497 9.68 27.0537 9.67594C27.0578 9.67189 27.0612 9.66749 27.0651 9.66332L27.4059 9.32252L28.0743 9.99086C28.2688 10.1854 28.2688 10.5019 28.0743 10.6964C27.9799 10.7907 27.8547 10.8426 27.7214 10.8426ZM7.48533 6.18937L7.89706 8.45399H7.07361L7.48533 6.18937ZM22.9628 19.726H7.03727L5.71633 14.9706H13.2041C13.3676 15.6372 13.8932 16.1628 14.5598 16.3263V16.8786C14.5598 17.1218 14.7569 17.319 15.0001 17.319C15.2432 17.319 15.4404 17.1218 15.4404 16.8786V16.3263C16.107 16.1628 16.6325 15.6372 16.796 14.9706H24.2838L22.9628 19.726ZM15 15.499C14.6245 15.499 14.2989 15.2838 14.1382 14.9706H15.8617C15.7011 15.2838 15.3755 15.499 15 15.499ZM15.4403 12.681V10.7475C16.2565 10.7602 17.0605 10.8084 17.8474 10.8909V12.681H15.4403ZM12.1527 12.681V10.8909C12.9395 10.8085 13.7435 10.7603 14.5597 10.7475V12.681H12.1527ZM18.728 10.9983C20.9028 11.3019 22.9264 11.8718 24.6843 12.681H18.728V10.9983ZM11.272 10.9983V12.681H5.31576C7.07367 11.8718 9.09723 11.3019 11.272 10.9983ZM24.8409 13.5616C24.7363 13.7191 24.6418 13.8957 24.5591 14.09H5.44093C5.35833 13.8957 5.26375 13.7191 5.15919 13.5616H24.8409ZM1.87117 16.2966C1.87334 16.2923 1.87786 16.2832 1.89271 16.2808C1.90762 16.2785 1.91473 16.2855 1.91819 16.289L4.31772 18.6885C4.32118 18.692 4.32835 18.6991 4.32594 18.714C4.32353 18.7288 4.31443 18.7334 4.31009 18.7355L2.51995 19.6306L0.976155 18.0868L1.87117 16.2966ZM2.75931 20.4954L4.70385 19.5232C4.96475 19.3927 5.14839 19.143 5.19512 18.855C5.24185 18.567 5.14662 18.272 4.94032 18.0658L2.5759 15.7014L2.88606 15.2052C2.97782 15.0583 3.13604 14.9707 3.30923 14.9707H4.8023L6.6451 21.6047H5.41158C4.91995 21.3068 4.34367 21.1351 3.72799 21.1351C3.39083 21.1351 3.06541 21.1866 2.75931 21.2821V20.4954ZM5.27672 22.5915C5.6777 22.9366 5.9625 23.4128 6.06412 23.9531H4.49062L5.27672 22.5915ZM3.72799 23.5127L2.94124 22.15C3.18764 22.0633 3.4523 22.0156 3.72799 22.0156C4.00369 22.0156 4.26835 22.0633 4.51475 22.15L3.72799 23.5127ZM2.17927 22.5915L2.96537 23.953H1.39187C1.49349 23.4127 1.77829 22.9366 2.17927 22.5915ZM1.39187 24.8336H2.96537L2.17927 26.1951C1.77829 25.85 1.49349 25.3739 1.39187 24.8336ZM2.94124 26.6366L3.72799 25.2739L4.51475 26.6366C4.26835 26.7233 4.00369 26.771 3.72799 26.771C3.4523 26.771 3.18764 26.7233 2.94124 26.6366ZM5.27672 26.1952L4.49062 24.8336H6.06412C5.96255 25.3739 5.6777 25.85 5.27672 26.1952ZM8.86498 24.3933C8.86498 23.8966 9.01833 23.4351 9.27987 23.0532L10.392 24.1654L8.87244 24.5726C8.86798 24.5133 8.86498 24.4537 8.86498 24.3933ZM13.3855 23.3633L11.8653 23.7707L12.2727 22.2505C12.7576 22.4845 13.1515 22.8784 13.3855 23.3633ZM11.0148 23.5427L9.90259 22.4305C10.2844 22.169 10.7459 22.0156 11.2427 22.0156C11.303 22.0156 11.3627 22.0186 11.4219 22.0231L11.0148 23.5427ZM9.09987 25.4234L10.62 25.016L10.2126 26.5361C9.72776 26.3021 9.33389 25.9082 9.09987 25.4234ZM11.0634 26.7636L11.4706 25.2439L12.5828 26.3561C12.2009 26.6177 11.7395 26.771 11.2427 26.771C11.1823 26.771 11.1227 26.768 11.0634 26.7636ZM13.2055 25.7334L12.0933 24.6212L13.6129 24.214C13.6174 24.2733 13.6204 24.3329 13.6204 24.3933C13.6204 24.8901 13.467 25.3516 13.2055 25.7334ZM21.0935 23.953H19.52L20.3061 22.5914C20.7071 22.9367 20.9919 23.4127 21.0935 23.953ZM18.7573 23.5127L17.9706 22.15C18.2171 22.0634 18.4817 22.0156 18.7573 22.0156C19.033 22.0156 19.2977 22.0633 19.5441 22.15L18.7573 23.5127ZM17.2086 22.5915L17.9947 23.953H16.4212C16.5228 23.4127 16.8076 22.9366 17.2086 22.5915ZM16.4212 24.8336H17.9947L17.2086 26.1951C16.8076 25.85 16.5228 25.3739 16.4212 24.8336ZM17.9706 26.6366L18.7573 25.2739L19.5441 26.6366C19.2976 26.7233 19.033 26.771 18.7573 26.771C18.4817 26.771 18.2171 26.7233 17.9706 26.6366ZM20.3061 26.1952L19.52 24.8336H21.0935C20.9919 25.3739 20.7071 25.85 20.3061 26.1952ZM21.4437 22.544C21.4418 22.544 21.44 22.5442 21.4382 22.5443C20.8496 21.6937 19.8677 21.135 18.7573 21.135C17.6391 21.135 16.6509 21.7014 16.0639 22.5621C16.0244 22.5505 15.9826 22.544 15.9393 22.544H14.061C14.0176 22.544 13.9758 22.5505 13.9362 22.5622C13.3492 21.7014 12.361 21.135 11.2427 21.135C10.1323 21.135 9.15042 21.6937 8.56187 22.5443C8.55999 22.5443 8.55817 22.544 8.55623 22.544C8.12273 22.544 7.73895 22.2523 7.62295 21.8346L7.28185 20.6066H22.7182L22.3771 21.8346C22.261 22.2523 21.8772 22.544 21.4437 22.544ZM23.8943 24.3933C23.8943 23.8966 24.0477 23.4351 24.3092 23.0532L25.4214 24.1654L23.9018 24.5726C23.8973 24.5133 23.8943 24.4537 23.8943 24.3933ZM24.1292 25.4234L25.6493 25.016L25.242 26.5361C24.7571 26.3021 24.3632 25.9082 24.1292 25.4234ZM26.0928 26.7636L26.5 25.2439L27.6122 26.3561C27.2303 26.6177 26.7688 26.771 26.272 26.771C26.2117 26.771 26.152 26.768 26.0928 26.7636ZM28.2348 25.7334L27.1227 24.6212L28.6423 24.214C28.6467 24.2733 28.6497 24.3329 28.6497 24.3933C28.6497 24.8901 28.4964 25.3516 28.2348 25.7334ZM28.4148 23.3633L26.8947 23.7707L27.302 22.2505C27.7869 22.4845 28.1808 22.8784 28.4148 23.3633ZM26.4513 22.0231L26.0441 23.5427L24.9319 22.4305C25.3137 22.169 25.7752 22.0156 26.272 22.0156C26.3324 22.0156 26.392 22.0186 26.4513 22.0231Z" fill="black"/>
</g>
<defs>
<clipPath id="clip0_116_27">
<rect width="30" height="30" fill="white"/>
</clipPath>
</defs>
</svg>
