<svg width="28" height="28" viewBox="0 0 28 28" fill="none" xmlns="http://www.w3.org/2000/svg">
<path d="M23.2859 18.0665C23.0031 18.067 22.7267 18.1512 22.4917 18.3087C22.2567 18.4662 22.0737 18.6897 21.9658 18.9512C21.8578 19.2126 21.8298 19.5002 21.8852 19.7776C21.9407 20.055 22.0771 20.3097 22.2773 20.5095C22.4774 20.7094 22.7324 20.8454 23.0098 20.9005C23.2873 20.9555 23.5748 20.927 23.8361 20.8187C24.0974 20.7103 24.3207 20.527 24.4778 20.2917C24.6349 20.0565 24.7187 19.78 24.7187 19.4972C24.7187 19.3091 24.6817 19.1229 24.6096 18.9492C24.5376 18.7755 24.432 18.6177 24.2989 18.4848C24.1659 18.3519 24.0079 18.2466 23.8341 18.1748C23.6602 18.103 23.474 18.0662 23.2859 18.0665ZM23.2859 20.4903C23.0896 20.4898 22.8978 20.4312 22.7348 20.3218C22.5717 20.2125 22.4448 20.0572 22.37 19.8757C22.2951 19.6942 22.2758 19.4946 22.3143 19.3021C22.3529 19.1096 22.4477 18.9328 22.5866 18.7941C22.7256 18.6555 22.9026 18.5611 23.0952 18.523C23.2878 18.4848 23.4873 18.5046 23.6687 18.5798C23.85 18.6551 24.005 18.7824 24.114 18.9456C24.223 19.1089 24.2812 19.3008 24.2812 19.4972C24.2807 19.7607 24.1755 20.0134 23.9889 20.1995C23.8023 20.3857 23.5495 20.4903 23.2859 20.4903Z" fill="black"/>
<path d="M23.2859 16.6797C22.5773 16.6808 21.8952 16.949 21.3755 17.4306C20.8557 17.9122 20.5365 18.572 20.4815 19.2784H15.4503V17.5284C15.4503 17.4704 15.4272 17.4148 15.3862 17.3738C15.3452 17.3327 15.2896 17.3097 15.2315 17.3097C15.1735 17.3097 15.1179 17.3327 15.0769 17.3738C15.0358 17.4148 15.0128 17.4704 15.0128 17.5284V19.2784H7.49435C7.45581 18.7845 7.28762 18.3095 7.00677 17.9014C6.72591 17.4933 6.34234 17.1665 5.89478 16.9541C5.44722 16.7416 4.95153 16.6511 4.45777 16.6915C3.96401 16.732 3.48966 16.902 3.08263 17.1844C2.6756 17.4668 2.3503 17.8516 2.13959 18.3C1.92888 18.7484 1.84022 19.2444 1.88255 19.738C1.92489 20.2316 2.09673 20.7053 2.38072 21.1113C2.66471 21.5172 3.05079 21.841 3.49997 22.05H2.27935C2.22133 22.05 2.16569 22.073 2.12467 22.1141C2.08365 22.1551 2.0606 22.2107 2.0606 22.2688C2.0606 22.3268 2.08365 22.3824 2.12467 22.4234C2.16569 22.4645 2.22133 22.4875 2.27935 22.4875H8.72591C8.78393 22.4875 8.83957 22.4645 8.88059 22.4234C8.92161 22.3824 8.94466 22.3268 8.94466 22.2688C8.94466 22.2107 8.92161 22.1551 8.88059 22.1141C8.83957 22.073 8.78393 22.05 8.72591 22.05H5.88216C6.33452 21.8389 6.72285 21.5117 7.00759 21.1017C7.29233 20.6917 7.46331 20.2135 7.5031 19.7159H20.4815C20.5205 20.2126 20.6902 20.6902 20.9733 21.1001C21.2564 21.51 21.643 21.8377 22.0937 22.05H20.0375C19.9795 22.05 19.9238 22.073 19.8828 22.1141C19.8418 22.1551 19.8187 22.2107 19.8187 22.2688C19.8187 22.3268 19.8418 22.3824 19.8828 22.4234C19.9238 22.4645 19.9795 22.4875 20.0375 22.4875H25.6922C25.7502 22.4875 25.8058 22.4645 25.8468 22.4234C25.8879 22.3824 25.9109 22.3268 25.9109 22.2688C25.9109 22.2107 25.8879 22.1551 25.8468 22.1141C25.8058 22.073 25.7502 22.05 25.6922 22.05H24.4693C25.0516 21.7805 25.5244 21.3203 25.8094 20.7455C26.0943 20.1706 26.1744 19.5157 26.0363 18.8891C25.8983 18.2626 25.5503 17.702 25.0501 17.3002C24.5499 16.8983 23.9275 16.6794 23.2859 16.6797ZM4.68997 21.875C4.21907 21.8754 3.75862 21.7362 3.36689 21.4748C2.97517 21.2135 2.66978 20.8418 2.48937 20.4068C2.30897 19.9718 2.26165 19.4931 2.35341 19.0312C2.44518 18.5693 2.67189 18.1451 3.00487 17.8121C3.33785 17.4791 3.76213 17.2524 4.22401 17.1606C4.68589 17.0689 5.16461 17.1162 5.59958 17.2966C6.03456 17.477 6.40624 17.7824 6.6676 18.1741C6.92895 18.5658 7.06822 19.0263 7.06779 19.4972C7.06721 20.1276 6.8165 20.7321 6.3707 21.1779C5.9249 21.6237 5.32043 21.8744 4.68997 21.875ZM23.2837 21.875C22.8129 21.875 22.3527 21.7354 21.9612 21.4737C21.5698 21.2121 21.2648 20.8403 21.0847 20.4053C20.9046 19.9703 20.8576 19.4916 20.9496 19.0299C21.0416 18.5681 21.2685 18.1441 21.6016 17.8113C21.9347 17.4786 22.3589 17.2521 22.8208 17.1605C23.2826 17.0689 23.7612 17.1163 24.196 17.2968C24.6309 17.4773 25.0024 17.7827 25.2637 18.1743C25.5249 18.566 25.6642 19.0264 25.6637 19.4972C25.6631 20.1276 25.4124 20.7321 24.9666 21.1779C24.5208 21.6237 23.9164 21.8744 23.2859 21.875H23.2837Z" fill="black"/>
<path d="M4.68998 18.0665C4.40722 18.0674 4.13106 18.152 3.89637 18.3098C3.66168 18.4675 3.47899 18.6912 3.37138 18.9527C3.26377 19.2142 3.23606 19.5017 3.29176 19.7789C3.34745 20.0562 3.48405 20.3107 3.6843 20.5103C3.88455 20.7099 4.13947 20.8458 4.41686 20.9006C4.69426 20.9555 4.98168 20.9269 5.24284 20.8185C5.504 20.7101 5.72717 20.5267 5.88418 20.2915C6.04119 20.0563 6.12498 19.7799 6.12498 19.4972C6.12498 19.3089 6.08784 19.1225 6.01567 18.9487C5.9435 18.7748 5.83773 18.6169 5.70442 18.484C5.57111 18.3511 5.41288 18.2458 5.2388 18.1742C5.06473 18.1025 4.87822 18.066 4.68998 18.0665ZM4.68998 20.4903C4.49375 20.4894 4.30217 20.4304 4.13943 20.3208C3.97669 20.2111 3.85008 20.0557 3.77558 19.8742C3.70108 19.6926 3.68204 19.4931 3.72085 19.3007C3.75967 19.1084 3.85459 18.9318 3.99366 18.7934C4.13272 18.6549 4.30969 18.5608 4.50221 18.5228C4.69474 18.4848 4.8942 18.5048 5.07541 18.5801C5.25663 18.6554 5.41148 18.7826 5.52041 18.9459C5.62934 19.1091 5.68748 19.3009 5.68748 19.4972C5.68748 19.6279 5.66165 19.7574 5.61147 19.8782C5.56129 19.999 5.48774 20.1087 5.39506 20.201C5.30237 20.2932 5.19238 20.3663 5.07138 20.4159C4.95038 20.4656 4.82077 20.4909 4.68998 20.4903Z" fill="black"/>
<path d="M25.5019 15.75V11.2591C25.5017 11.2231 25.4926 11.1876 25.4754 11.156C25.4583 11.1243 25.4335 11.0973 25.4034 11.0775C25.3734 11.0576 25.339 11.0453 25.3031 11.0419C25.2672 11.0385 25.2311 11.0439 25.1978 11.0578L21.5272 12.5891C21.4873 12.606 21.4533 12.6343 21.4296 12.6706C21.4058 12.7068 21.3933 12.7492 21.3937 12.7925V14.6825C21.3792 14.6815 21.3646 14.6815 21.35 14.6825H19.0881C19.0301 14.6825 18.9745 14.7056 18.9334 14.7466C18.8924 14.7876 18.8694 14.8433 18.8694 14.9013C18.8694 14.9593 18.8924 15.0149 18.9334 15.056C18.9745 15.097 19.0301 15.12 19.0881 15.12H21.35C21.3645 15.1221 21.3792 15.1221 21.3937 15.12V15.656C21.025 15.8322 20.6826 16.0589 20.3766 16.3297C20.3463 16.3133 20.3125 16.3044 20.2781 16.3035H18.4691C18.411 16.3035 18.3554 16.3265 18.3144 16.3675C18.2734 16.4086 18.2503 16.4642 18.2503 16.5222C18.2503 16.5802 18.2734 16.6359 18.3144 16.6769C18.3554 16.7179 18.411 16.741 18.4691 16.741H19.9675C19.6527 17.0971 19.3965 17.501 19.2084 17.9375C19.1858 17.9909 19.1854 18.0511 19.2071 18.1048C19.2289 18.1585 19.271 18.2014 19.3244 18.2241C19.3515 18.2351 19.3804 18.241 19.4097 18.2416C19.4526 18.2416 19.4946 18.2289 19.5304 18.2052C19.5662 18.1814 19.5942 18.1477 19.6109 18.1082C19.9184 17.3799 20.433 16.758 21.0908 16.3196C21.7486 15.8812 22.5207 15.6456 23.3112 15.6421C24.1017 15.6386 24.8758 15.8674 25.5375 16.2999C26.1991 16.7325 26.7192 17.3498 27.0331 18.0753C27.0563 18.1287 27.0998 18.1707 27.1539 18.192C27.2081 18.2134 27.2685 18.2123 27.3219 18.1891C27.3752 18.1659 27.4172 18.1224 27.4385 18.0683C27.4599 18.0141 27.4588 17.9537 27.4356 17.9003C27.0463 16.9896 26.3663 16.2335 25.5019 15.75ZM21.8312 15.4569V12.9347L25.0644 11.5938V12.7663H24.0625C24.0045 12.7663 23.9488 12.7893 23.9078 12.8304C23.8668 12.8714 23.8437 12.927 23.8437 12.985C23.8437 13.043 23.8668 13.0987 23.9078 13.1397C23.9488 13.1807 24.0045 13.2038 24.0625 13.2038H25.06V13.9716H23.2334C23.1754 13.9716 23.1198 13.9946 23.0788 14.0357C23.0377 14.0767 23.0147 14.1323 23.0147 14.1903C23.0147 14.2484 23.0377 14.304 23.0788 14.345C23.1198 14.386 23.1754 14.4091 23.2334 14.4091H25.06V15.5553C24.0321 15.1198 22.8779 15.087 21.8269 15.4635L21.8312 15.4569Z" fill="black"/>
<path d="M4.68565 15.6341C5.47299 15.6339 6.24319 15.8641 6.90127 16.2963C7.55935 16.7286 8.07655 17.3439 8.38909 18.0666C8.4123 18.12 8.45576 18.1619 8.50991 18.1833C8.56406 18.2046 8.62447 18.2036 8.67784 18.1803C8.73122 18.1571 8.77319 18.1137 8.79452 18.0595C8.81585 18.0054 8.8148 17.945 8.79159 17.8916C8.55665 17.3498 8.21666 16.8599 7.79125 16.4502C7.36584 16.0406 6.86347 15.7193 6.31315 15.505V12.2982C6.31321 12.2623 6.30446 12.227 6.28768 12.1954C6.27089 12.1637 6.24659 12.1367 6.2169 12.1166C6.1869 12.0966 6.15243 12.0844 6.11656 12.081C6.08069 12.0775 6.04452 12.083 6.01128 12.0969L3.3294 13.2147C3.28946 13.2311 3.25526 13.259 3.23112 13.2948C3.20699 13.3306 3.19399 13.3728 3.19378 13.416V15.4547C2.60657 15.6623 2.06929 15.9904 1.61646 16.418C1.16363 16.8456 0.805265 17.3632 0.564404 17.9375C0.541823 17.9909 0.541349 18.0511 0.563087 18.1048C0.584824 18.1585 0.626996 18.2014 0.680342 18.2241C0.707464 18.2351 0.736383 18.241 0.765654 18.2416C0.808593 18.2416 0.850572 18.2289 0.886359 18.2052C0.922146 18.1814 0.950158 18.1477 0.966904 18.1082C1.27367 17.375 1.79041 16.7489 2.4521 16.3087C3.1138 15.8685 3.8909 15.6338 4.68565 15.6341ZM3.63128 13.5625L5.87565 12.6263V15.3607C5.48816 15.2528 5.08789 15.1976 4.68565 15.1966C4.33045 15.1977 3.9766 15.2403 3.63128 15.3235V13.5625Z" fill="black"/>
<path d="M8.58154 15.9863H10.6465C10.7046 15.9863 10.7602 15.9633 10.8012 15.9222C10.8422 15.8812 10.8653 15.8256 10.8653 15.7676C10.8653 15.7095 10.8422 15.6539 10.8012 15.6129C10.7602 15.5719 10.7046 15.5488 10.6465 15.5488H8.80029V13.7244H14.6256L14.2318 14.8444C14.2129 14.899 14.2163 14.9588 14.2413 15.0108C14.2663 15.0629 14.3109 15.1029 14.3653 15.1222C14.393 15.1337 14.4229 15.1393 14.4529 15.1387C14.4829 15.1381 14.5125 15.1313 14.5398 15.1188C14.5671 15.1063 14.5915 15.0883 14.6115 15.0659C14.6316 15.0436 14.6468 15.0173 14.6562 14.9888L15.1528 13.5779C15.1647 13.5439 15.1681 13.5075 15.1626 13.4719C15.1571 13.4363 15.1429 13.4027 15.1213 13.3739C15.0996 13.3451 15.0712 13.3221 15.0385 13.3069C15.0059 13.2918 14.97 13.2849 14.934 13.2869H8.80904V9.33193L8.86591 9.28162C9.50652 8.63862 9.93404 7.81426 10.0905 6.9202C10.2471 6.02613 10.125 5.10557 9.74091 4.28318C9.72632 4.25107 9.70418 4.22295 9.67637 4.20124C9.64857 4.17953 9.61592 4.16486 9.58122 4.1585C9.54658 4.15248 9.51099 4.15491 9.47748 4.16557C9.44397 4.17623 9.41352 4.19482 9.38872 4.21975L6.78122 6.82287L5.54966 5.59131C5.60223 5.50378 5.63365 5.40519 5.64142 5.30338C5.64919 5.20157 5.6331 5.09935 5.59442 5.00486C5.55575 4.91036 5.49556 4.82619 5.41864 4.75905C5.34171 4.6919 5.25019 4.64363 5.15133 4.61807C5.05248 4.59252 4.94902 4.59038 4.8492 4.61183C4.74937 4.63328 4.65593 4.67773 4.5763 4.74164C4.49667 4.80555 4.43305 4.88716 4.39051 4.97998C4.34796 5.0728 4.32766 5.17427 4.33122 5.27631C4.33122 5.45036 4.40036 5.61728 4.52343 5.74035C4.6465 5.86342 4.81342 5.93256 4.98747 5.93256C5.06935 5.93244 5.1504 5.91609 5.22591 5.88443L6.47716 7.13568L3.79529 9.80662C3.77074 9.83163 3.75257 9.86217 3.74229 9.89567C3.73201 9.92917 3.72993 9.96465 3.73622 9.99912C3.74237 10.0336 3.7567 10.0661 3.77802 10.0939C3.79933 10.1217 3.82701 10.1439 3.85872 10.1588C4.44313 10.4335 5.0811 10.5755 5.72685 10.5744C6.67266 10.5695 7.59223 10.263 8.35185 9.69943V15.7676C8.35181 15.7972 8.35781 15.8266 8.36948 15.8539C8.38115 15.8812 8.39825 15.9058 8.41974 15.9262C8.44122 15.9467 8.46664 15.9626 8.49446 15.9729C8.52228 15.9832 8.5519 15.9878 8.58154 15.9863ZM4.76654 5.26756C4.76654 5.2243 4.77936 5.182 4.8034 5.14603C4.82744 5.11006 4.8616 5.08202 4.90157 5.06546C4.94154 5.0489 4.98553 5.04457 5.02796 5.05301C5.07039 5.06145 5.10937 5.08229 5.13996 5.11288C5.17056 5.14347 5.19139 5.18245 5.19983 5.22488C5.20827 5.26732 5.20394 5.3113 5.18738 5.35127C5.17083 5.39124 5.14279 5.42541 5.10682 5.44944C5.07084 5.47348 5.02855 5.48631 4.98529 5.48631C4.92875 5.48636 4.8744 5.46451 4.83362 5.42536C4.79284 5.38621 4.7688 5.3328 4.76654 5.27631V5.26756ZM4.32904 9.87662L9.46091 4.76006C9.72917 5.47576 9.78575 6.25354 9.62388 7.00053C9.46202 7.74751 9.08856 8.43211 8.5481 8.97257C8.00765 9.51302 7.32305 9.88648 6.57606 10.0483C5.82908 10.2102 5.05129 10.1536 4.3356 9.88537L4.32904 9.87662Z" fill="black"/>
<path d="M18.7688 13.919C18.8218 13.9332 18.8783 13.9269 18.9269 13.9014C18.9756 13.8758 19.0128 13.8329 19.0313 13.7812L19.5213 12.1209C19.531 12.0876 19.5327 12.0524 19.5262 12.0183C19.5196 11.9842 19.5051 11.9522 19.4837 11.9248C19.4623 11.8974 19.4347 11.8756 19.4032 11.861C19.3717 11.8464 19.3372 11.8395 19.3025 11.8409H17.8434C17.7949 11.8388 17.7471 11.853 17.7075 11.8811C17.6679 11.9092 17.6387 11.9497 17.6247 11.9962L16.4063 15.9796H11.8563C11.7982 15.9796 11.7426 16.0027 11.7016 16.0437C11.6606 16.0847 11.6375 16.1404 11.6375 16.1984V17.5109C11.6375 17.5689 11.6606 17.6246 11.7016 17.6656C11.7426 17.7066 11.7982 17.7296 11.8563 17.7296H13.2125C13.2705 17.7296 13.3262 17.7066 13.3672 17.6656C13.4082 17.6246 13.4313 17.5689 13.4313 17.5109C13.4313 17.4529 13.4082 17.3972 13.3672 17.3562C13.3262 17.3152 13.2705 17.2921 13.2125 17.2921H12.075V16.4171H16.5725C16.6192 16.4168 16.6645 16.4016 16.7019 16.3736C16.7393 16.3457 16.7668 16.3065 16.7803 16.2618L18.0053 12.2696H19.0313L18.6244 13.6478C18.608 13.7029 18.6139 13.7623 18.6409 13.813C18.6679 13.8638 18.7139 13.9019 18.7688 13.919Z" fill="black"/>
<path d="M19.5847 20.604C19.5847 20.546 19.5616 20.4903 19.5206 20.4493C19.4796 20.4083 19.424 20.3853 19.3659 20.3853H8.96875C8.91073 20.3853 8.85509 20.4083 8.81407 20.4493C8.77305 20.4903 8.75 20.546 8.75 20.604C8.75 20.662 8.77305 20.7177 8.81407 20.7587C8.85509 20.7997 8.91073 20.8228 8.96875 20.8228H19.3594C19.3886 20.8236 19.4178 20.8186 19.4451 20.808C19.4724 20.7974 19.4973 20.7815 19.5183 20.7611C19.5393 20.7406 19.556 20.7162 19.5674 20.6893C19.5788 20.6623 19.5847 20.6333 19.5847 20.604Z" fill="black"/>
<path d="M14.4878 23.625C14.4878 23.567 14.4648 23.5113 14.4237 23.4703C14.3827 23.4293 14.3271 23.4062 14.2691 23.4062H4.88031C4.82229 23.4062 4.76665 23.4293 4.72563 23.4703C4.68461 23.5113 4.66156 23.567 4.66156 23.625C4.66156 23.683 4.68461 23.7387 4.72563 23.7797C4.76665 23.8207 4.82229 23.8438 4.88031 23.8438H14.2691C14.3271 23.8438 14.3827 23.8207 14.4237 23.7797C14.4648 23.7387 14.4878 23.683 14.4878 23.625Z" fill="black"/>
<path d="M15.75 23.8438H21.1684C21.2265 23.8438 21.2821 23.8207 21.3231 23.7797C21.3641 23.7387 21.3872 23.683 21.3872 23.625C21.3872 23.567 21.3641 23.5113 21.3231 23.4703C21.2821 23.4293 21.2265 23.4062 21.1684 23.4062H15.75C15.692 23.4062 15.6363 23.4293 15.5953 23.4703C15.5543 23.5113 15.5312 23.567 15.5312 23.625C15.5312 23.683 15.5543 23.7387 15.5953 23.7797C15.6363 23.8207 15.692 23.8438 15.75 23.8438Z" fill="black"/>
<path d="M14.7131 22.2688C14.7131 22.2108 14.6901 22.1551 14.649 22.1141C14.608 22.0731 14.5524 22.05 14.4944 22.05H10.5372C10.4792 22.05 10.4235 22.0731 10.3825 22.1141C10.3415 22.1551 10.3184 22.2108 10.3184 22.2688C10.3184 22.3268 10.3415 22.3825 10.3825 22.4235C10.4235 22.4645 10.4792 22.4875 10.5372 22.4875H14.4944C14.5524 22.4875 14.608 22.4645 14.649 22.4235C14.6901 22.3825 14.7131 22.3268 14.7131 22.2688Z" fill="black"/>
<path d="M22.6384 23.4062C22.5804 23.4062 22.5248 23.4293 22.4837 23.4703C22.4427 23.5113 22.4197 23.567 22.4197 23.625C22.4197 23.683 22.4427 23.7387 22.4837 23.7797C22.5248 23.8207 22.5804 23.8438 22.6384 23.8438H24.3359C24.3939 23.8438 24.4496 23.8207 24.4906 23.7797C24.5316 23.7387 24.5547 23.683 24.5547 23.625C24.5547 23.567 24.5316 23.5113 24.4906 23.4703C24.4496 23.4293 24.3939 23.4062 24.3359 23.4062H22.6384Z" fill="black"/>
<path d="M16.5309 22.05C16.4729 22.05 16.4173 22.0731 16.3763 22.1141C16.3352 22.1551 16.3122 22.2108 16.3122 22.2688C16.3122 22.3268 16.3352 22.3825 16.3763 22.4235C16.4173 22.4645 16.4729 22.4875 16.5309 22.4875H17.8434C17.9015 22.4875 17.9571 22.4645 17.9981 22.4235C18.0391 22.3825 18.0622 22.3268 18.0622 22.2688C18.0622 22.2108 18.0391 22.1551 17.9981 22.1141C17.9571 22.0731 17.9015 22.05 17.8434 22.05H16.5309Z" fill="black"/>
</svg>
