<svg width="28" height="28" viewBox="0 0 28 28" fill="none" xmlns="http://www.w3.org/2000/svg">
<g clip-path="url(#clip0_128_4)">
<path d="M10.6787 6.30976C12.1564 3.6588 12.8953 2.33331 14 2.33331C15.1047 2.33331 15.8435 3.65879 17.3212 6.30974L17.7036 6.99558C18.1236 7.7489 18.3334 8.12557 18.6609 8.37409C18.9883 8.62261 19.3959 8.71486 20.2114 8.89937L20.9539 9.06735C23.8234 9.71663 25.2583 10.0413 25.5997 11.139C25.941 12.2367 24.9629 13.3806 23.0065 15.6682L22.5004 16.26C21.9445 16.9101 21.6665 17.2351 21.5414 17.6373C21.4165 18.0394 21.4585 18.4731 21.5425 19.3405L21.619 20.1301C21.9148 23.1823 22.0627 24.7085 21.169 25.3869C20.2752 26.0653 18.9318 25.4467 16.245 24.2097L15.5499 23.8896C14.7864 23.5381 14.4047 23.3622 14 23.3622C13.5953 23.3622 13.2135 23.5381 12.4501 23.8896L11.755 24.2097C9.06811 25.4467 7.72469 26.0653 6.83099 25.3869C5.93729 24.7085 6.08517 23.1823 6.38095 20.1301L6.45746 19.3405C6.54152 18.4731 6.58354 18.0394 6.45849 17.6373C6.33344 17.2351 6.05548 16.9101 5.49956 16.26L4.99343 15.6682C3.03711 13.3806 2.05894 12.2367 2.40031 11.139C2.74167 10.0413 4.17648 9.71663 7.04611 9.06735L7.78852 8.89937C8.60397 8.71486 9.0117 8.62261 9.33908 8.37409C9.66646 8.12557 9.87643 7.74891 10.2964 6.99558L10.6787 6.30976Z" stroke="#1C274C" stroke-width="3.75"/>
</g>
<defs>
<clipPath id="clip0_128_4">
<rect width="28" height="28" fill="white"/>
</clipPath>
</defs>
</svg>
